# xmcd
#
# Track frame offsets:
#	180
#	19305
#	39131
#	57645
#	74881
#	95342
#	113875
#	132661
#	151748
#	170786
#
# Disc length: 2541 seconds
#
# Revision: 0
# Processed by: cddbd v1.5.1PL2 Copyright (c) Steve Scherf et al.
# Submitted via: audiograbber 1.82.02
#
DISCID=9009eb0a
DTITLE=Q - The Man With The Plan
DYEAR=1995
DGENRE=Rap
TTITLE0="Q"
TTITLE1=My Conscience
TTITLE2=Murder In The 1st Degree
TTITLE3=Go On Whicha Games
TTITLE4=Das How It Is In The Ghetto
TTITLE5=Who Said A Nigga Can't Flow
TTITLE6=That Is Real
TTITLE7=Summer Time
TTITLE8=That Is Real (Dope-Mix)
TTITLE9=My Conscience (The Funk Anthem)
EXTD=Cashflow420.com
EXTT0=
EXTT1=
EXTT2=
EXTT3=
EXTT4=
EXTT5=
EXTT6=
EXTT7=
EXTT8=
EXTT9=
PLAYORDER=
